<?xml version="1.0" encoding="UTF-8" standalone="no"?>
<svg
   width="28.999999999999996"
   height="28.999999999999996"
   version="1.1"
   id="svg323"
   xmlns="http://www.w3.org/2000/svg"
   xmlns:svg="http://www.w3.org/2000/svg">
  <defs
     id="defs327" />
  <g
     id="g321"
     transform="translate(0.30371499,0.30371499)">
    <title
       id="title305">Layer 1</title>
    <g
       id="layer1">
      <rect
         filter="url(#filter1694)"
         stroke-miterlimit="4"
         stroke-linejoin="bevel"
         stroke-linecap="round"
         stroke-width="0.60743"
         stroke="#643912"
         fill="#92651f"
         id="rect1368"
         width="29.39257"
         height="29.39257"
         x="0"
         y="0" />
      <path
         filter="url(#filter1684)"
         stroke-dashoffset="0"
         stroke-miterlimit="4"
         stroke-linecap="round"
         stroke-width="1.01237"
         fill-rule="nonzero"
         fill="#593905"
         clip-rule="nonzero"
         id="path1301-1"
         d="M 7.7725,3.18541 A 0.50743,0.50495 0 0 0 7.43356,3.3215 L 2.21064,8.17972 a 0.50743,0.50495 0 0 0 -0.0238,0.71404 0.50743,0.50495 0 0 0 0.71753,0.0236 L 8.12531,4.05914 A 0.50743,0.50495 0 0 0 8.15111,3.34511 0.50743,0.50495 0 0 0 7.77252,3.18534 Z" />
      <path
         filter="url(#filter1684)"
         stroke-dashoffset="0"
         stroke-miterlimit="4"
         stroke-linecap="round"
         stroke-width="1.01237"
         fill-rule="nonzero"
         fill="#593905"
         clip-rule="nonzero"
         id="path1305-9"
         d="M 15.42353,2.91714 A 0.50743,0.50495 0 0 0 15.08657,3.05917 L 2.54165,15.27276 a 0.50743,0.50495 0 0 0 -0.008,0.71601 0.50743,0.50495 0 0 0 0.71754,0.006 L 15.79611,3.78118 a 0.50743,0.50495 0 0 0 0.008,-0.71403 0.50743,0.50495 0 0 0 -0.38057,-0.14991 z" />
      <path
         filter="url(#filter1684)"
         stroke-dashoffset="0"
         stroke-miterlimit="4"
         stroke-linecap="round"
         stroke-width="1.01237"
         fill-rule="nonzero"
         fill="#593905"
         clip-rule="nonzero"
         id="path1309-9"
         d="M 23.25891,2.95069 A 0.50743,0.50495 0 0 0 22.92194,3.09073 L 2.30776,22.86286 a 0.50743,0.50495 0 0 0 -0.0139,0.71403 0.50743,0.50495 0 0 0 0.71754,0.0118 L 23.62557,3.81853 a 0.50743,0.50495 0 0 0 0.0139,-0.71404 0.50743,0.50495 0 0 0 -0.38056,-0.15384 z" />
      <path
         filter="url(#filter1684)"
         stroke-dashoffset="0"
         stroke-miterlimit="4"
         stroke-linecap="round"
         stroke-width="1.01237"
         fill-rule="nonzero"
         fill="#593905"
         clip-rule="nonzero"
         d="m 21.973,27.04684 a 0.50743,0.50495 0 0 0 0.33895,-0.13609 l 5.22292,-4.85823 a 0.50743,0.50495 0 0 0 0.0238,-0.71403 0.50743,0.50495 0 0 0 -0.71753,-0.0236 l -5.22094,4.85822 a 0.50743,0.50495 0 0 0 -0.0258,0.71404 0.50743,0.50495 0 0 0 0.37859,0.15976 z"
         id="path1301-1-1" />
      <path
         filter="url(#filter1684)"
         stroke-dashoffset="0"
         stroke-miterlimit="4"
         stroke-linecap="round"
         stroke-width="1.01237"
         fill-rule="nonzero"
         fill="#593905"
         clip-rule="nonzero"
         d="m 14.32197,27.3151 a 0.50743,0.50495 0 0 0 0.33696,-0.14202 L 27.20385,14.95949 a 0.50743,0.50495 0 0 0 0.008,-0.716 0.50743,0.50495 0 0 0 -0.71753,-0.006 L 13.9493,26.45108 a 0.50743,0.50495 0 0 0 -0.008,0.71403 0.50743,0.50495 0 0 0 0.38057,0.14991 z"
         id="path1305-9-6" />
      <path
         filter="url(#filter1684)"
         stroke-dashoffset="0"
         stroke-miterlimit="4"
         stroke-linecap="round"
         stroke-width="1.01237"
         fill-rule="nonzero"
         fill="#593905"
         clip-rule="nonzero"
         d="M 6.4866,27.28157 A 0.50743,0.50495 0 0 0 6.82356,27.14153 L 27.43774,7.36939 a 0.50743,0.50495 0 0 0 0.0139,-0.71403 0.50743,0.50495 0 0 0 -0.71753,-0.0118 L 6.11994,26.41372 a 0.50743,0.50495 0 0 0 -0.0139,0.71404 0.50743,0.50495 0 0 0 0.38057,0.15385 z"
         id="path1309-9-0" />
      <path
         stroke-dashoffset="0"
         stroke-miterlimit="4"
         stroke-linecap="round"
         stroke-width="1.01237"
         fill-rule="nonzero"
         fill="#cda947"
         clip-rule="nonzero"
         d="M 7.7725,2.75218 A 0.50743,0.50495 0 0 0 7.43355,2.88828 L 2.21063,7.7465 a 0.50743,0.50495 0 0 0 -0.0238,0.71403 0.50743,0.50495 0 0 0 0.71754,0.0236 L 8.1253,3.62591 A 0.50743,0.50495 0 0 0 8.1511,2.91186 0.50743,0.50495 0 0 0 7.77251,2.7521 Z"
         id="path1301" />
      <path
         stroke-dashoffset="0"
         stroke-miterlimit="4"
         stroke-linecap="round"
         stroke-width="1.01237"
         fill-rule="nonzero"
         fill="#cda947"
         clip-rule="nonzero"
         d="M 15.42353,2.48392 A 0.50743,0.50495 0 0 0 15.08657,2.62594 L 2.54165,14.83953 a 0.50743,0.50495 0 0 0 -0.008,0.71601 0.50743,0.50495 0 0 0 0.71753,0.006 L 15.7961,3.34795 A 0.50743,0.50495 0 0 0 15.8041,2.63391 0.50743,0.50495 0 0 0 15.42353,2.484 Z"
         id="path1305" />
      <path
         stroke-dashoffset="0"
         stroke-miterlimit="4"
         stroke-linecap="round"
         stroke-width="1.01237"
         fill-rule="nonzero"
         fill="#cda947"
         clip-rule="nonzero"
         d="M 23.2589,2.51745 A 0.50743,0.50495 0 0 0 22.92194,2.6575 L 2.30776,22.42963 a 0.50743,0.50495 0 0 0 -0.0139,0.71404 0.50743,0.50495 0 0 0 0.71753,0.0118 L 23.62557,3.38531 A 0.50743,0.50495 0 0 0 23.63947,2.67127 0.50743,0.50495 0 0 0 23.2589,2.51742 Z"
         id="path1309" />
      <path
         stroke-dashoffset="0"
         stroke-miterlimit="4"
         stroke-linecap="round"
         stroke-width="1.01237"
         fill-rule="nonzero"
         fill="#cda947"
         clip-rule="nonzero"
         id="path1301-0"
         d="m 21.97301,26.57822 a 0.50743,0.50495 0 0 0 0.33894,-0.13609 l 5.22292,-4.85822 a 0.50743,0.50495 0 0 0 0.0238,-0.71404 0.50743,0.50495 0 0 0 -0.71753,-0.0236 l -5.22094,4.85822 a 0.50743,0.50495 0 0 0 -0.0258,0.71404 0.50743,0.50495 0 0 0 0.37859,0.15976 z" />
      <path
         stroke-dashoffset="0"
         stroke-miterlimit="4"
         stroke-linecap="round"
         stroke-width="1.01237"
         fill-rule="nonzero"
         fill="#cda947"
         clip-rule="nonzero"
         id="path1305-7"
         d="m 14.32197,26.84649 a 0.50743,0.50495 0 0 0 0.33697,-0.14203 L 27.20386,14.49087 a 0.50743,0.50495 0 0 0 0.008,-0.716 0.50743,0.50495 0 0 0 -0.71754,-0.006 L 13.9494,25.98246 a 0.50743,0.50495 0 0 0 -0.008,0.71403 0.50743,0.50495 0 0 0 0.38057,0.14991 z" />
      <path
         stroke-dashoffset="0"
         stroke-miterlimit="4"
         stroke-linecap="round"
         stroke-width="1.01237"
         fill-rule="nonzero"
         fill="#cda947"
         clip-rule="nonzero"
         id="path1309-8"
         d="M 6.4866,26.81295 A 0.50743,0.50495 0 0 0 6.82357,26.67291 L 27.43775,6.90077 a 0.50743,0.50495 0 0 0 0.0139,-0.71403 0.50743,0.50495 0 0 0 -0.71754,-0.0118 L 6.11994,25.94511 a 0.50743,0.50495 0 0 0 -0.0139,0.71403 0.50743,0.50495 0 0 0 0.38057,0.15385 z" />
    </g>
  </g>
</svg>
