<?xml version="1.0" encoding="UTF-8" standalone="no"?>
<svg
   id="svg979"
   version="1.1"
   viewBox="0 0 30 30"
   height="30mm"
   width="30mm"
   xmlns="http://www.w3.org/2000/svg"
   xmlns:svg="http://www.w3.org/2000/svg"
   xmlns:rdf="http://www.w3.org/1999/02/22-rdf-syntax-ns#"
   xmlns:cc="http://creativecommons.org/ns#"
   xmlns:dc="http://purl.org/dc/elements/1.1/">
  <defs
     id="defs973" />
  <metadata
     id="metadata976">
    <rdf:RDF>
      <cc:Work
         rdf:about="">
        <dc:format>image/svg+xml</dc:format>
        <dc:type
           rdf:resource="http://purl.org/dc/dcmitype/StillImage" />
      </cc:Work>
    </rdf:RDF>
  </metadata>
  <g
     id="layer1">
    <rect
       y="0.30347049"
       x="0.30347049"
       height="29.393059"
       width="29.393059"
       id="rect1688"
       style="display:inline;fill:#631e7b;fill-opacity:1;stroke:#48094a;stroke-width:0.606941;stroke-linecap:round;stroke-linejoin:bevel;stroke-miterlimit:4;stroke-dasharray:none;stroke-opacity:1;paint-order:markers fill stroke;filter:url(#filter1694)" />
    <path
       id="path1599-8"
       style="fill:none;stroke:#48094a;stroke-width:0.91041;stroke-linecap:butt;stroke-linejoin:miter;stroke-miterlimit:4;stroke-dasharray:none;stroke-opacity:1;filter:url(#filter1684)"
       d="m 5.0339321,7.1854461 c 0,0 -0.314681,1.65886 -0.339198,2.52067 -0.04076,1.4329509 -0.03103,2.7297909 0.403576,4.1003909 0.269443,0.849739 0.873387,1.53806 1.423333,2.25041 0.419237,0.54305 1.013808,1.27184 1.013808,1.27184 0,0 0.166595,1.46424 0.420346,2.1516 0.205166,0.55575 0.505219,1.0857 0.875856,1.55464 0.49045,0.62052 1.106371,1.14874 1.7490069,1.62207 0.561308,0.41342 1.165587,0.7893 1.818795,1.04757 0.455351,0.18004 0.945132,0.28096 1.433612,0.33769 0.3828,0.0445 0.93298,0.0472 1.43415,0.0393 0.50128,0.008 1.05125,0.005 1.43416,-0.0393 0.48848,-0.0567 0.97826,-0.15765 1.43361,-0.33769 0.65321,-0.25827 1.25749,-0.63415 1.81879,-1.04757 0.64264,-0.47333 1.25856,-1.00155 1.74901,-1.62207 0.37064,-0.46894 0.67069,-0.99889 0.87586,-1.55464 0.25375,-0.68736 0.42034,-2.1516 0.42034,-2.1516 0,0 0.59457,-0.72879 1.01381,-1.27184 0.54995,-0.71235 1.15389,-1.400671 1.42333,-2.25041 0.43461,-1.3706 0.44434,-2.66744 0.40358,-4.1003909 -0.0245,-0.86181 -0.3392,-2.52067 -0.3392,-2.52067 0,0 -0.93612,2.5462 -1.83935,3.7444199 -0.57346,0.76073 -2.16827,1.89284 -2.16827,1.89284 0,0 -0.99345,-1.460079 -1.74901,-1.960279 -0.75556,-0.50019 -1.74581,-0.808461 -2.44796,-0.9801509 -0.70215,-0.17168 -2.0287,-0.19698 -2.0287,-0.19698 0,0 -1.32654,0.0253 -2.02869,0.19698 -0.702153,0.1716899 -1.6924,0.4799609 -2.447964,0.9801509 -0.755564,0.5002 -1.7490079,1.960279 -1.7490079,1.960279 0,0 -1.594815,-1.13211 -2.168271,-1.89284 C 5.9700581,9.7316461 5.0339321,7.1854461 5.0339321,7.1854461 Z" />
    <path
       style="fill:none;stroke:#48094a;stroke-width:0.809255;stroke-linecap:round;stroke-linejoin:miter;stroke-miterlimit:4;stroke-dasharray:none;stroke-opacity:1;filter:url(#filter1684)"
       d="m 9.7904991,15.272437 2.2940929,2.1507"
       id="path1601-4" />
    <path
       id="path1601-7-7"
       d="m 20.029887,15.272437 -2.2941,2.1507"
       style="fill:none;stroke:#48094a;stroke-width:0.809255;stroke-linecap:round;stroke-linejoin:miter;stroke-miterlimit:4;stroke-dasharray:none;stroke-opacity:1;filter:url(#filter1684)" />
    <path
       d="m 5.0339321,6.6740461 c 0,0 -0.314681,1.65886 -0.339198,2.52067 -0.04076,1.4329509 -0.03103,2.7297909 0.403576,4.1003909 0.269443,0.84974 0.873387,1.538059 1.423333,2.25041 0.419237,0.543049 1.013808,1.27184 1.013808,1.27184 0,0 0.166594,1.46425 0.420346,2.1516 0.205166,0.55575 0.505219,1.0857 0.875856,1.55464 0.49045,0.62052 1.106371,1.14874 1.7490069,1.62207 0.561308,0.41343 1.165587,0.7893 1.818795,1.04757 0.455351,0.18004 0.945132,0.28096 1.433612,0.33769 0.3828,0.0445 0.93298,0.0473 1.43415,0.0393 0.50128,0.008 1.05125,0.005 1.43416,-0.0393 0.48848,-0.0567 0.97826,-0.15765 1.43361,-0.33769 0.65321,-0.25827 1.25749,-0.63414 1.81879,-1.04757 0.64264,-0.47333 1.25856,-1.00155 1.74901,-1.62207 0.37064,-0.46894 0.67069,-0.99889 0.87586,-1.55464 0.25375,-0.68735 0.42034,-2.1516 0.42034,-2.1516 0,0 0.59457,-0.728791 1.01381,-1.27184 0.54995,-0.712351 1.15389,-1.40067 1.42333,-2.25041 0.43461,-1.3706 0.44434,-2.66744 0.40358,-4.1003909 -0.0245,-0.86181 -0.3392,-2.52067 -0.3392,-2.52067 0,0 -0.93612,2.5462 -1.83935,3.7444209 -0.57346,0.76074 -2.16827,1.89285 -2.16827,1.89285 0,0 -0.99345,-1.460091 -1.74901,-1.96029 -0.75556,-0.5001909 -1.74581,-0.8084609 -2.44796,-0.9801509 -0.70215,-0.17168 -2.0287,-0.19698 -2.0287,-0.19698 0,0 -1.32654,0.0253 -2.02869,0.19698 -0.702153,0.17169 -1.6924,0.47996 -2.447964,0.9801509 -0.755564,0.500199 -1.7490079,1.96029 -1.7490079,1.96029 0,0 -1.594815,-1.13211 -2.168271,-1.89285 C 5.9700581,9.2202461 5.0339321,6.6740461 5.0339321,6.6740461 Z"
       style="fill:none;stroke:#8c5097;stroke-width:0.91041;stroke-linecap:butt;stroke-linejoin:miter;stroke-miterlimit:4;stroke-dasharray:none;stroke-opacity:1"
       id="path1599" />
    <path
       id="path1601"
       d="m 9.7904991,14.761037 2.2940929,2.1507"
       style="fill:none;stroke:#8c5097;stroke-width:0.809255;stroke-linecap:round;stroke-linejoin:miter;stroke-miterlimit:4;stroke-dasharray:none;stroke-opacity:1" />
    <path
       style="fill:none;stroke:#8c5097;stroke-width:0.809255;stroke-linecap:round;stroke-linejoin:miter;stroke-miterlimit:4;stroke-dasharray:none;stroke-opacity:1"
       d="m 20.029887,14.761037 -2.2941,2.1507"
       id="path1601-7" />
  </g>
</svg>
