<?xml version="1.0" encoding="UTF-8" standalone="no"?>
<svg
   id="svg979"
   version="1.1"
   viewBox="0 0 30 30"
   height="30mm"
   width="30mm"
   xmlns="http://www.w3.org/2000/svg"
   xmlns:svg="http://www.w3.org/2000/svg"
   xmlns:rdf="http://www.w3.org/1999/02/22-rdf-syntax-ns#"
   xmlns:cc="http://creativecommons.org/ns#"
   xmlns:dc="http://purl.org/dc/elements/1.1/">
  <defs
     id="defs973" />
  <metadata
     id="metadata976">
    <rdf:RDF>
      <cc:Work
         rdf:about="">
        <dc:format>image/svg+xml</dc:format>
        <dc:type
           rdf:resource="http://purl.org/dc/dcmitype/StillImage" />
      </cc:Work>
    </rdf:RDF>
  </metadata>
  <g
     id="layer1">
    <rect
       y="0.3003605"
       x="0.3003605"
       height="29.399279"
       width="29.399279"
       id="rect1437"
       style="display:inline;fill:#05558d;fill-opacity:1;stroke:#053866;stroke-width:0.600721;stroke-linecap:round;stroke-linejoin:bevel;stroke-miterlimit:4;stroke-dasharray:none;stroke-opacity:1;paint-order:markers fill stroke;filter:url(#filter1694)" />
    <path
       style="fill:none;stroke:#053866;stroke-width:0.80096;stroke-linecap:round;stroke-linejoin:miter;stroke-miterlimit:4;stroke-dasharray:none;stroke-opacity:1;filter:url(#filter1684)"
       d="m 2.2830311,8.4168041 c 0,0 1.196817,-1.55689 2.49147,-1.5558 1.29465,0.001 2.024576,2.72757 3.700041,2.72947 1.6754639,0.002 2.2444189,-2.73612 4.0538399,-2.72947 1.809421,0.007 2.56117,2.76831 4.21116,2.74502 1.64999,-0.0232 2.15781,-2.77507 4.01063,-2.77848 1.85282,-0.003 2.70065,2.78139 3.97721,2.77308 1.27656,-0.008 2.50664,-1.90272 2.50664,-1.90272"
       id="path1370-2" />
    <path
       id="path1370-9-1"
       d="m 2.2830311,15.840043 c 0,0 1.196817,-1.55688 2.49147,-1.55579 1.29465,0.001 2.024576,2.72757 3.700041,2.72947 1.6754639,0.002 2.2444189,-2.73612 4.0538399,-2.72947 1.809421,0.007 2.56117,2.76831 4.21116,2.74502 1.64999,-0.0232 2.15781,-2.77507 4.01063,-2.77848 1.85282,-0.003 2.70065,2.78139 3.97721,2.77308 1.27656,-0.008 2.50664,-1.90272 2.50664,-1.90272"
       style="fill:none;stroke:#053866;stroke-width:0.80096;stroke-linecap:round;stroke-linejoin:miter;stroke-miterlimit:4;stroke-dasharray:none;stroke-opacity:1;filter:url(#filter1684)" />
    <path
       id="path1370-8-1"
       d="m 2.2830311,22.733063 c 0,0 1.196817,-1.55689 2.49147,-1.55579 1.29465,0.001 2.024576,2.72756 3.700041,2.72946 1.6754639,0.002 2.2444189,-2.73612 4.0538399,-2.72946 1.809421,0.007 2.56117,2.7683 4.21116,2.74501 1.64999,-0.0232 2.15781,-2.77506 4.01063,-2.77848 1.85282,-0.003 2.70065,2.78139 3.97721,2.773081 1.27656,-0.008 2.50664,-1.902711 2.50664,-1.902711"
       style="fill:none;stroke:#053866;stroke-width:0.80096;stroke-linecap:round;stroke-linejoin:miter;stroke-miterlimit:4;stroke-dasharray:none;stroke-opacity:1;filter:url(#filter1684)" />
    <path
       id="path1370"
       d="m 2.2830311,7.9671141 c 0,0 1.196817,-1.55687 2.491469,-1.55578 1.29465,10e-4 2.024577,2.72756 3.700042,2.72946 1.6754629,0.002 2.2444189,-2.73611 4.0538399,-2.72946 1.809421,0.007 2.56117,2.7683 4.21116,2.74501 1.64999,-0.0233 2.15781,-2.77506 4.01063,-2.77847 1.85282,-0.003 2.70065,2.78138 3.97721,2.77307 1.27656,-0.008 2.50664,-1.90272 2.50664,-1.90272"
       style="fill:none;stroke:#5197be;stroke-width:0.80096;stroke-linecap:round;stroke-linejoin:miter;stroke-miterlimit:4;stroke-dasharray:none;stroke-opacity:1" />
    <path
       style="fill:none;stroke:#5197be;stroke-width:0.80096;stroke-linecap:round;stroke-linejoin:miter;stroke-miterlimit:4;stroke-dasharray:none;stroke-opacity:1"
       d="m 2.2830311,15.390363 c 0,0 1.196817,-1.55688 2.491469,-1.55579 1.29465,10e-4 2.024577,2.72756 3.700042,2.72947 1.6754629,0.002 2.2444189,-2.73612 4.0538399,-2.72947 1.809421,0.007 2.56117,2.76831 4.21116,2.74502 1.64999,-0.0232 2.15781,-2.77506 4.01063,-2.77848 1.85282,-0.003 2.70065,2.78138 3.97721,2.77308 1.27656,-0.008 2.50664,-1.90272 2.50664,-1.90272"
       id="path1370-9" />
    <path
       style="fill:none;stroke:#5197be;stroke-width:0.80096;stroke-linecap:round;stroke-linejoin:miter;stroke-miterlimit:4;stroke-dasharray:none;stroke-opacity:1"
       d="m 2.2830311,22.283383 c 0,0 1.196817,-1.55688 2.491469,-1.55579 1.29465,0.001 2.024577,2.72756 3.700042,2.72946 1.6754629,0.002 2.2444189,-2.73611 4.0538399,-2.72946 1.809421,0.007 2.56117,2.7683 4.21116,2.74501 1.64999,-0.0232 2.15781,-2.77506 4.01063,-2.77847 1.85282,-0.003 2.70065,2.78138 3.97721,2.77307 1.27656,-0.008 2.50664,-1.90272 2.50664,-1.90272"
       id="path1370-8" />
  </g>
</svg>
